<svg xmlns="http://www.w3.org/2000/svg" viewBox="0 0 544.52 166.83"><title>Artboard 1 copy 2White</title><g id="Layer_1" data-name="Layer 1"><rect x="434.64" y="70.48" width="16.26" height="3.81" style="fill:#bdaa8c"/><rect x="434.64" y="81.54" width="16.26" height="3.81" style="fill:#bdaa8c"/><rect x="434.64" y="93.78" width="16.26" height="3.81" style="fill:#bdaa8c"/><path d="M466.46,78.48c-1.13-1.1-1.17-1.94-1-2.45a2.49,2.49,0,0,1,2-1.57A3.61,3.61,0,0,1,471,76l3.32-2.67a9.13,9.13,0,0,0-3.69-2.74,7.21,7.21,0,0,0-4-.29,7.07,7.07,0,0,0-3.25,1.53,6.19,6.19,0,0,0-2,3,5.81,5.81,0,0,0,.07,3.43,7.73,7.73,0,0,0,2.08,3.25l3.32,3.14c.15.15,2.12,2.08,3.32,3.21A3.18,3.18,0,0,1,471.39,91a3.59,3.59,0,0,1-2.85,2.27,4.17,4.17,0,0,1-2.48-.22,6,6,0,0,1-2.67-2.12L460,93.53A10.72,10.72,0,0,0,464.52,97a8.78,8.78,0,0,0,3.21.58,8.3,8.3,0,0,0,1.64-.15,7.85,7.85,0,0,0,6.1-5.3,6.42,6.42,0,0,0-.07-3.8A8.12,8.12,0,0,0,473,84.8c-.58-.55-1.39-1.32-2-2Z" style="fill:#bdaa8c"/><polygon points="419.69 97.59 423.97 97.59 423.97 69.24 411.22 88.24 398.46 69.24 398.46 97.59 402.7 97.59 402.7 83.19 411.22 95.83 419.69 83.19 419.69 97.59" style="fill:#bdaa8c"/><polygon points="384.95 97.59 389.59 97.59 377.82 69.24 366.02 97.59 370.7 97.59 373 91.78 373.02 91.78 375.08 86.6 375.08 86.6 377.82 79.72 380.45 86.32 383.54 93.99 383.52 93.99 384.95 97.59" style="fill:#bdaa8c"/><path d="M358.9,88.38V70.48h-4.27v17.9a4.71,4.71,0,0,1-1.5,3.76,6.13,6.13,0,0,1-3.87,1.21,6.7,6.7,0,0,1-1.72-.22v4.35a13.12,13.12,0,0,0,1.72.11,10.13,10.13,0,0,0,6.58-2.19,8.76,8.76,0,0,0,3.07-7" style="fill:#bdaa8c"/><polygon points="305.01 80.16 322.07 98.83 322.07 70.48 317.8 70.48 317.8 87.87 300.77 69.2 300.77 97.59 305.01 97.59 305.01 80.16" style="fill:#bdaa8c"/><path d="M258.65,87.8a7.59,7.59,0,0,0,3.14-2.08,10.05,10.05,0,0,0,0-12.53,8.62,8.62,0,0,0-6.76-2.7h-8V97.59h4.24V88.42h3.1l6.83,9.17H266Zm-7.42-3.18V74.32H255a5,5,0,0,1,3.91,1.42,6.3,6.3,0,0,1,0,7.42A5,5,0,0,1,255,84.62Z" style="fill:#bdaa8c"/><path d="M231.61,79.47a5.39,5.39,0,0,1-1.21,3.69,5,5,0,0,1-3.91,1.46h-3.8V74.32h3.8a5,5,0,0,1,3.91,1.42,5.42,5.42,0,0,1,1.21,3.73m1.64,6.25a10,10,0,0,0,0-12.53,8.62,8.62,0,0,0-6.76-2.7h-8V97.59h4.24V88.42h3.11l6.83,9.17h4.79l-7.31-9.79a7.58,7.58,0,0,0,3.14-2.08" style="fill:#bdaa8c"/><polygon points="205.31 97.59 209.95 97.59 198.18 69.24 186.38 97.59 191.06 97.59 192.59 93.73 192.58 93.73 192.97 92.76 193.36 91.78 193.37 91.78 195.43 86.6 195.45 86.6 198.18 79.72 201.47 87.98 201.47 87.98 203 91.78 203.01 91.78 203.54 93.13 203.89 93.99 203.88 93.99 205.31 97.59" style="fill:#bdaa8c"/><polygon points="174.07 98.79 185.73 70.48 181.09 70.48 173.96 88.34 169.14 77.02 166.76 71.5 164.57 77.09 160.08 88.34 152.44 70.48 147.77 70.48 160.19 98.79 166.91 82.46 174.07 98.79" style="fill:#bdaa8c"/><rect x="274.4" y="70.48" width="16.26" height="3.81" style="fill:#bdaa8c"/><rect x="274.4" y="81.54" width="16.26" height="3.81" style="fill:#bdaa8c"/><rect x="274.4" y="93.78" width="16.26" height="3.81" style="fill:#bdaa8c"/><path d="M234.19,129.78h-2l2.1-15.4-1.13-.64.19-.82,2.67-.54.49.25-.15,1.48a4.7,4.7,0,0,1,1.34-1.24,3.21,3.21,0,0,1,1.72-.49,3.3,3.3,0,0,1,2,.56,3.37,3.37,0,0,1,1.19,1.56,6.23,6.23,0,0,1,.39,2.3,8.36,8.36,0,0,1-.81,3.47,8,8,0,0,1-2.33,3,5.47,5.47,0,0,1-3.49,1.2,6.9,6.9,0,0,1-1.38-.16Zm.94-6.94a2.66,2.66,0,0,0,1.49.36,3,3,0,0,0,2.28-1,6.18,6.18,0,0,0,1.39-2.44,9.37,9.37,0,0,0,.46-2.82,4.6,4.6,0,0,0-.46-2.26,1.41,1.41,0,0,0-1.27-.81,2.78,2.78,0,0,0-1.57.51,5.43,5.43,0,0,0-1.29,1.2Z" style="fill:#bdaa8c"/><path d="M257,119.36q.23-1.17.37-2.09a11.09,11.09,0,0,0,.14-1.67,2.72,2.72,0,0,0-.15-1,.77.77,0,0,0-.39-.44,1.72,1.72,0,0,0-.63-.1,3.06,3.06,0,0,0-1.76.73,8.06,8.06,0,0,0-1.76,1.85l-1,7.84h-2.07l2-15.38-1.23-.45.18-.86,2.82-.44.54.28L253,115a7.79,7.79,0,0,1,2-1.89,4.11,4.11,0,0,1,2.27-.72,2.16,2.16,0,0,1,1.76.73,3.76,3.76,0,0,1,.61,2.41,9.84,9.84,0,0,1-.14,1.55q-.14.87-.39,2.15l-.05.29q-.34,2-.42,3a2,2,0,0,0,0,.59c0,.13.1.19.2.19a1,1,0,0,0,.42-.12,5.41,5.41,0,0,0,.68-.45l.32.55a2.16,2.16,0,0,1-.49.45,4.32,4.32,0,0,1-.94.52,2.93,2.93,0,0,1-1.13.23,1.43,1.43,0,0,1-1-.32,1.26,1.26,0,0,1-.29-1q0-.49.12-1.08t.26-1.57l.12-.7Z" style="fill:#bdaa8c"/><path d="M275.9,113.65a5.36,5.36,0,0,1,1.07,3.56,8.36,8.36,0,0,1-.77,3.52,7,7,0,0,1-2.12,2.7,4.9,4.9,0,0,1-3,1A3.8,3.8,0,0,1,268,123.2a5.35,5.35,0,0,1-1.07-3.56,8.36,8.36,0,0,1,.77-3.52,7,7,0,0,1,2.12-2.71,4.86,4.86,0,0,1,3-1A3.81,3.81,0,0,1,275.9,113.65Zm-1.74,1a1.88,1.88,0,0,0-1.71-.95,2.3,2.3,0,0,0-1.83.89,5.86,5.86,0,0,0-1.12,2.24,10.23,10.23,0,0,0-.37,2.73,5.34,5.34,0,0,0,.57,2.72,1.87,1.87,0,0,0,1.71,1,2.32,2.32,0,0,0,1.83-.9,5.81,5.81,0,0,0,1.13-2.26,10.5,10.5,0,0,0,.37-2.75A5.15,5.15,0,0,0,274.17,114.6Z" style="fill:#bdaa8c"/><path d="M285.18,113.83h-1.24l.21-.94,1.28-.5a5.42,5.42,0,0,0,.69-1.15q.38-.79.71-1.67h1l-.35,2.81h2.7l-.21,1.45h-2.67l-.86,6.42a16.09,16.09,0,0,0-.18,1.81,1.82,1.82,0,0,0,.07.59.47.47,0,0,0,.25.28,1.38,1.38,0,0,0,.54.08,2.57,2.57,0,0,0,1-.28,5.17,5.17,0,0,0,1-.57l.19.8a3.33,3.33,0,0,1-.81.66,6.35,6.35,0,0,1-1.24.6,3.71,3.71,0,0,1-1.24.24,2.1,2.1,0,0,1-1.38-.43,1.73,1.73,0,0,1-.52-1.41,12.2,12.2,0,0,1,.13-1.41Z" style="fill:#bdaa8c"/><path d="M304.74,113.65a5.36,5.36,0,0,1,1.07,3.56,8.36,8.36,0,0,1-.77,3.52,7,7,0,0,1-2.12,2.7,4.9,4.9,0,0,1-3,1,3.8,3.8,0,0,1-3.07-1.26,5.35,5.35,0,0,1-1.07-3.56,8.36,8.36,0,0,1,.77-3.52,7,7,0,0,1,2.12-2.71,4.86,4.86,0,0,1,3-1A3.81,3.81,0,0,1,304.74,113.65Zm-1.74,1a1.88,1.88,0,0,0-1.71-.95,2.3,2.3,0,0,0-1.83.89,5.86,5.86,0,0,0-1.12,2.24,10.23,10.23,0,0,0-.37,2.73,5.34,5.34,0,0,0,.57,2.72,1.87,1.87,0,0,0,1.71,1,2.32,2.32,0,0,0,1.83-.9,5.81,5.81,0,0,0,1.13-2.26,10.5,10.5,0,0,0,.37-2.75A5.15,5.15,0,0,0,303,114.6Z" style="fill:#bdaa8c"/><path d="M320.18,112.5a7.49,7.49,0,0,1,1.09.31l1.26-.44-2,12.91a4.8,4.8,0,0,1-1.15,2.55,5.5,5.5,0,0,1-2.11,1.47,6.49,6.49,0,0,1-2.35.46,7.92,7.92,0,0,1-1.31-.11,4.4,4.4,0,0,1-1-.25l.52-2a7.39,7.39,0,0,0,1.29.48,5.48,5.48,0,0,0,1.49.21,3.85,3.85,0,0,0,1.36-.19,1.29,1.29,0,0,0,.69-.64,5,5,0,0,0,.37-1.41l.47-3a5,5,0,0,1-1.38,1.11,3.58,3.58,0,0,1-1.75.44,3.15,3.15,0,0,1-1.9-.56,3.33,3.33,0,0,1-1.15-1.55,6.42,6.42,0,0,1-.38-2.3,8.29,8.29,0,0,1,.82-3.46,8,8,0,0,1,2.36-3,5.6,5.6,0,0,1,3.55-1.21A5.67,5.67,0,0,1,320.18,112.5Zm0,1.55a2.39,2.39,0,0,0-1.46-.4,3.11,3.11,0,0,0-2.33,1,6.23,6.23,0,0,0-1.43,2.45,9.12,9.12,0,0,0-.47,2.81,4.82,4.82,0,0,0,.44,2.26,1.32,1.32,0,0,0,1.19.81,3,3,0,0,0,1.67-.54,5.16,5.16,0,0,0,1.34-1.26Z" style="fill:#bdaa8c"/><path d="M329.68,113.83l.19-.92,2.55-.54.5.25-.22,2.4a5.74,5.74,0,0,1,.78-1.13,4.83,4.83,0,0,1,1.29-1.06,3.3,3.3,0,0,1,1.67-.44,1,1,0,0,1,.63.13l-.47,2.24a2.25,2.25,0,0,0-1.07-.18,3,3,0,0,0-1.7.57,4.06,4.06,0,0,0-1.38,1.82l-.93,7.48h-2.07l1.26-10Z" style="fill:#bdaa8c"/><path d="M350,112.48a8.7,8.7,0,0,1,1,.26l1.25-.35L351,122.32a1.72,1.72,0,0,0,0,.21.74.74,0,0,0,.09.41.27.27,0,0,0,.23.14.85.85,0,0,0,.36-.1,3.49,3.49,0,0,0,.55-.36l.32.54a2.12,2.12,0,0,1-.44.49,3.81,3.81,0,0,1-.85.56,2.33,2.33,0,0,1-1,.25,1.44,1.44,0,0,1-1-.34,1.29,1.29,0,0,1-.32-1.06l.07-.66a6.78,6.78,0,0,1-1.58,1.47,3.27,3.27,0,0,1-1.83.59,2.73,2.73,0,0,1-2.45-1.18,5.8,5.8,0,0,1-.78-3.23,8.29,8.29,0,0,1,.82-3.46,8,8,0,0,1,2.36-3,5.6,5.6,0,0,1,3.55-1.21A5.53,5.53,0,0,1,350,112.48Zm0,1.49a2.49,2.49,0,0,0-1.34-.32,3.13,3.13,0,0,0-2.33,1,6.16,6.16,0,0,0-1.43,2.43,9,9,0,0,0-.47,2.81q0,3.21,1.47,3.21a2.72,2.72,0,0,0,1.7-.71,8.13,8.13,0,0,0,1.51-1.61Z" style="fill:#bdaa8c"/><path d="M360.68,129.78h-2l2.1-15.4-1.13-.64.19-.82,2.67-.54.49.25-.15,1.48a4.7,4.7,0,0,1,1.34-1.24,3.21,3.21,0,0,1,1.72-.49,3.3,3.3,0,0,1,2,.56A3.37,3.37,0,0,1,369,114.5a6.23,6.23,0,0,1,.39,2.3,8.36,8.36,0,0,1-.81,3.47,8,8,0,0,1-2.33,3,5.47,5.47,0,0,1-3.49,1.2,6.9,6.9,0,0,1-1.38-.16Zm.94-6.94a2.66,2.66,0,0,0,1.49.36,3,3,0,0,0,2.28-1,6.18,6.18,0,0,0,1.39-2.44,9.37,9.37,0,0,0,.46-2.82,4.6,4.6,0,0,0-.46-2.26,1.41,1.41,0,0,0-1.27-.81,2.78,2.78,0,0,0-1.57.51,5.43,5.43,0,0,0-1.29,1.2Z" style="fill:#bdaa8c"/><path d="M383.51,119.36q.23-1.17.37-2.09a11.09,11.09,0,0,0,.14-1.67,2.72,2.72,0,0,0-.15-1,.77.77,0,0,0-.39-.44,1.72,1.72,0,0,0-.63-.1,3.06,3.06,0,0,0-1.76.73,8.06,8.06,0,0,0-1.76,1.85l-1,7.84h-2.07l2-15.38-1.23-.45.18-.86,2.82-.44.54.28-1,7.38a7.79,7.79,0,0,1,2-1.89,4.11,4.11,0,0,1,2.27-.72,2.16,2.16,0,0,1,1.76.73,3.76,3.76,0,0,1,.61,2.41,9.84,9.84,0,0,1-.14,1.55q-.14.87-.39,2.15l-.05.29q-.34,2-.42,3a2,2,0,0,0,0,.59c0,.13.1.19.2.19a1,1,0,0,0,.42-.12,5.41,5.41,0,0,0,.68-.45l.32.55a2.16,2.16,0,0,1-.49.45,4.32,4.32,0,0,1-.94.52,2.93,2.93,0,0,1-1.13.23,1.43,1.43,0,0,1-1-.32,1.26,1.26,0,0,1-.29-1q0-.49.12-1.08t.26-1.57l.12-.7Z" style="fill:#bdaa8c"/><path d="M394.23,114a.31.31,0,0,0-.26-.14.78.78,0,0,0-.33.08,2.31,2.31,0,0,0-.51.41l-.3-.69a2.84,2.84,0,0,1,.46-.49,4,4,0,0,1,.82-.56,2.07,2.07,0,0,1,1-.25,1.27,1.27,0,0,1,1,.35,2,2,0,0,1,.38,1.07l.42,3.61.48,4,.21,2.84,1.61-3.24q.27-.66.61-1.37.48-1,.75-1.71a9.76,9.76,0,0,0,.45-1.48,7.61,7.61,0,0,0,.18-1.68,1.7,1.7,0,0,0-.18-.66q-.09-.25-.13-.39a1.1,1.1,0,0,1,0-.31,1.08,1.08,0,0,1,.28-.82,1,1,0,0,1,.75-.27q1.35,0,1.35,2a7.15,7.15,0,0,1-.29,2,13.56,13.56,0,0,1-.71,1.91q-.41.89-1.07,2.16l-.35.69a40.67,40.67,0,0,1-4,6.89,4.27,4.27,0,0,1-1.46,1.24,4.65,4.65,0,0,1-2.29.53,6,6,0,0,1-.91-.09,6.53,6.53,0,0,1-.9-.2l.49-1.66.28.13a3,3,0,0,0,.64.2,3.92,3.92,0,0,0,.84.09,2.75,2.75,0,0,0,1.16-.31,4.59,4.59,0,0,0,1.32-1,6.94,6.94,0,0,0,1.2-1.85h-1l-1.78-10.61A1.11,1.11,0,0,0,394.23,114Z" style="fill:#bdaa8c"/></g><g id="Layer_4" data-name="Layer 4"><polygon points="64.51 84.47 72.16 71.28 53.05 38.08 37.77 38.04 64.51 84.47" style="fill:#bdaa8c"/><polygon points="94.89 84.47 102.52 71.25 83.39 38.05 68.16 38.05 94.89 84.47" style="fill:#bdaa8c"/><polygon points="110.14 58.27 121.82 38.04 106.56 38.04 102.52 45.03 110.14 58.27" style="fill:#bdaa8c"/><polygon points="87.37 97.62 79.77 110.78 72.16 97.62 79.77 84.45 87.37 97.62" style="fill:#bdaa8c"/></g></svg>