<?xml version="1.0" standalone="no"?>
<!DOCTYPE svg PUBLIC "-//W3C//DTD SVG 20010904//EN"
 "http://www.w3.org/TR/2001/REC-SVG-20010904/DTD/svg10.dtd">
<svg version="1.0" xmlns="http://www.w3.org/2000/svg"
 width="158.000000pt" height="158.000000pt" viewBox="0 0 158.000000 158.000000"
 preserveAspectRatio="xMidYMid meet">
<metadata>
Created by potrace 1.11, written by Peter Selinger 2001-2013
</metadata>
<g transform="translate(0.000000,158.000000) scale(0.100000,-0.100000)"
fill="#000000" stroke="none">
<path d="M102 1098 c-14 -14 -16 -44 -3 -53 11 -6 31 26 31 49 0 19 -11 21
-28 4z"/>
<path d="M112 1017 l-31 -32 53 -22 c127 -52 280 -72 561 -74 88 0 183 -4 210
-8 l50 -7 -31 -16 c-16 -9 -113 -53 -215 -98 -303 -135 -460 -221 -513 -279
-18 -20 -18 -21 9 -31 21 -8 60 -4 179 19 260 51 377 64 566 64 190 0 287 -17
374 -66 23 -12 48 -21 57 -19 16 3 39 42 39 66 0 19 -96 63 -164 75 -145 26
-437 9 -764 -45 -85 -14 -159 -23 -165 -21 -18 6 245 135 478 235 116 50 255
111 309 136 95 44 276 143 276 151 0 2 -16 -3 -35 -11 -64 -27 -232 -62 -352
-75 -205 -21 -485 4 -747 65 -59 14 -109 26 -110 26 -1 0 -16 -15 -34 -33z"/>
<path d="M1378 393 c-23 -26 -29 -67 -17 -102 16 -44 41 -56 71 -32 30 25 33
98 4 130 -23 26 -38 26 -58 4z"/>
<path d="M1431 236 c-21 -26 -25 -83 -7 -111 18 -27 47 -33 63 -12 47 58 -9
180 -56 123z"/>
</g>
</svg>
